<?xml version="1.0" encoding="utf-8"?>
<!-- Generator: Adobe Illustrator 23.0.3, SVG Export Plug-In . SVG Version: 6.00 Build 0)  -->
<svg fill = "#ffffff" version="1.1" id="Icons" xmlns="http://www.w3.org/2000/svg" xmlns:xlink="http://www.w3.org/1999/xlink" x="0px" y="0px"
	 viewBox="0 0 32 32" style="enable-background:new 0 0 32 32;" xml:space="preserve">
<style type="text/css">
	.st0{fill:none;stroke:#000000;stroke-width:2;stroke-linecap:round;stroke-linejoin:round;stroke-miterlimit:10;}
</style>
<path d="M16,2C9.9,2,5,6.9,5,13v15.1c0,0.4,0.2,0.8,0.6,0.9c0.4,0.2,0.8,0.1,1.1-0.2l0.7-0.6c0.4-0.3,0.9-0.3,1.3,0
	c1.1,1.1,2.9,1.1,4,0c0.4-0.3,0.9-0.3,1.3,0c1.1,1.1,2.9,1.1,4,0c0.4-0.3,0.9-0.3,1.3,0c1.1,1.1,2.9,1.1,4,0c0.4-0.3,0.9-0.3,1.3,0
	l0.7,0.6c0.2,0.2,0.4,0.3,0.7,0.3c0.1,0,0.3,0,0.4-0.1c0.4-0.2,0.6-0.5,0.6-0.9V13C27,6.9,22.1,2,16,2z M18,13c0-0.6,0.4-1,1-1
	s1,0.4,1,1v3c0,0.6-0.4,1-1,1s-1-0.4-1-1V13z M12,13c0-0.6,0.4-1,1-1s1,0.4,1,1v3c0,0.6-0.4,1-1,1s-1-0.4-1-1V13z M21,20H11
	c-0.6,0-1-0.4-1-1s0.4-1,1-1h10c0.6,0,1,0.4,1,1S21.6,20,21,20z"/>
</svg>
